<svg width="117" height="117" viewBox="0 0 117 117" fill="none" xmlns="http://www.w3.org/2000/svg">
<mask id="path-1-inside-1_559_9" fill="white">
<path fill-rule="evenodd" clip-rule="evenodd" d="M116.047 63.75L58.0237 0L0 63.75H29.0237V117H86.0237V63.75H116.047Z"/>
</mask>
<path d="M58.0237 0L63.94 -5.3849L58.0237 -11.8851L52.1074 -5.3849L58.0237 0ZM116.047 63.75V71.75H134.146L121.964 58.3651L116.047 63.75ZM0 63.75L-5.91633 58.3651L-18.0989 71.75H0V63.75ZM29.0237 63.75H37.0237V55.75H29.0237V63.75ZM29.0237 117H21.0237V125H29.0237V117ZM86.0237 117V125H94.0237V117H86.0237ZM86.0237 63.75V55.75H78.0237V63.75H86.0237ZM52.1074 5.3849L110.131 69.1349L121.964 58.3651L63.94 -5.3849L52.1074 5.3849ZM5.91633 69.1349L63.94 5.3849L52.1074 -5.3849L-5.91633 58.3651L5.91633 69.1349ZM29.0237 55.75H0V71.75H29.0237V55.75ZM37.0237 117V63.75H21.0237V117H37.0237ZM86.0237 109H29.0237V125H86.0237V109ZM78.0237 63.75V117H94.0237V63.75H78.0237ZM116.047 55.75H86.0237V71.75H116.047V55.75Z" fill="#E6E6E6" mask="url(#path-1-inside-1_559_9)"/>
</svg>
